<svg xmlns="http://www.w3.org/2000/svg" viewBox="0 0 468.17 347.86"><defs><style>.cls-1{fill:#a85aa1;}.cls-2{fill:#71508e;}.cls-3{fill:#5ea9be;}.cls-4{fill:#fdf8e2;}.cls-5{fill:#55583d;}.cls-6{fill:#507c89;}.cls-7{fill:#9acde0;}.cls-8{fill:#dae2e5;}.cls-10,.cls-11,.cls-14,.cls-17,.cls-18,.cls-9{fill:none;stroke-linecap:round;}.cls-9{stroke:#507c89;}.cls-10,.cls-11,.cls-9{stroke-miterlimit:10;}.cls-10,.cls-11,.cls-14,.cls-9{stroke-width:2.57px;}.cls-10{stroke:#cbe1ef;}.cls-11{stroke:#a85aa1;}.cls-12{fill:#f2998b;}.cls-13{fill:#f3bfb3;}.cls-14{stroke:#71508e;}.cls-14,.cls-17,.cls-18{stroke-linejoin:round;}.cls-15{fill:#cbe1ef;}.cls-16{fill:#84482a;}.cls-17,.cls-18{stroke:#84482a;}.cls-17{stroke-width:1.48px;}.cls-18{stroke-width:2.22px;}</style></defs><g id="Layer_2" data-name="Layer 2"><g id="OBJECTS"><g id="Plant"><ellipse class="cls-1" cx="67.77" cy="248.43" rx="24.09" ry="4.42"/><polygon class="cls-1" points="104.21 162.24 31.12 162.24 43.85 247.93 91.76 247.93 104.21 162.24"/><ellipse class="cls-2" cx="67.67" cy="162.38" rx="36.55" ry="6.71"/><path class="cls-3" d="M38.31,166.37c6.66,1.65,17.33,2.71,29.36,2.71S90.36,168,97,166.37c-6.66-1.64-17.33-2.71-29.35-2.71S45,164.73,38.31,166.37Z"/><path class="cls-4" d="M114.46,42.78c-3.36.23-6.69-1.11-8.43,3.06s-2.35,5.31-3.81,6-6.89,2.84-9.86,7.45a9,9,0,0,1-3.63,3c.56-1.8,1.27-3.6,2.89-4.47,3.39-1.8,1.95-6.29,1.13-10.08s-.83-5.62,1.28-7.24,2-6,.4-9.72a6.9,6.9,0,0,1,.12-6.28,32.55,32.55,0,0,0-6.76,7.26c-2.54,4,1.52,5-.21,11s-4.11,5.83-3.36,9.11,1.55,5.26-.78,7.16a10.63,10.63,0,0,0-3,4.94c.11-3.46-1.85-7.7-2.29-10.69-.49-3.32,3-4.35,1.53-9.1s0-3.65-1-6.89-4-2.29-5.37-8.09S69,23.09,69,23.09c.42,6.47-3.93,5.28-2.92,10.35s1.7,4.45,0,7.31.31,5.69,1.61,9.16-.82,5.08-.22,9.17,3.84,1.26,4.58,4.54-.93,4.32,1.85,5.47a11.75,11.75,0,0,0,3.51,1.14,86.93,86.93,0,0,0-3.82,8.39,3.09,3.09,0,0,0-1.16-1.74c-2.34-1.74-1.58-3.68-3-4.77A5.87,5.87,0,0,1,67,67.77c-.3-2-.61-5.91-2.33-7s-3.22-.57-3.86-4.91S59.68,53.7,58.24,51,57,47.58,55.49,46.49c-.07,1.31,1.55,5.25-.05,6.79s-.56,5-2,6-2.14,5,.24,7,2.57,3.27,3,6.08,0,2.09,4.55,6.12,1.16,6.1,4.05,8c2.68,1.79,4.1-.28,5.35.81a129.77,129.77,0,0,0-3.54,15.52c-1-1.46-.9-3.34-1-5.74-.15-2.85-2.53-3-4.32-4.58s-3-2.44-3.09-5-1.95-2.59-4.22-3.82S50.58,80.62,49,76.94s-6.11-2.5-6.11-2.5S40.93,86,45,88.5s.6,5.91,3.2,7.62,4.9-.46,6,1.47,3.17,7.37,5.51,7.28a15.11,15.11,0,0,1,6.83,2.18c-.67,4.83-1.1,9.6-1.37,14.22.09-4-.84-5.27-3.7-6.21-3.29-1.09-7.22-4.69-7.81-7s-2.59.12-5.09-2.64S43.4,101,41.1,101.33c.29.22,2.55,6.68,1.24,8.43s1.71,8.11,4.3,8,4.39,1.44,5.83,4.1,3.8,1,6.69,2.93c2.67,1.77,2.51,2.41,5.7,2.23A219.72,219.72,0,0,0,67,164.24a2.37,2.37,0,0,0,2.2,2h.07a2.39,2.39,0,0,0,2.49-2.81,189.57,189.57,0,0,1-2.43-44.15,6.2,6.2,0,0,0,3.4-1.48c2.07-1.87,6.82-1.52,8.65-1.53s3.67-3.41,4.47-5.09,4.53-1.19,6.71-2.3,4-6.84,4.38-9.25,5.45-7.33,5.45-7.33-3,1.22-5.87,2.69-3.14-.06-4.85.71a10,10,0,0,0-4,2.68c-.88,1.18-2.37,1.66-4.34,2.47s-1.27,2-3.53,4.43-6.26,3.53-6.89,2.84-2,4.21-2.6,7.17a6.9,6.9,0,0,1-.82,2.18,191.1,191.1,0,0,1,2.63-20.83c2-.06,4.31.52,5.17.4,1.28-.19,3-2.79,4-4.51s4.71-1.74,7.74-2.44,3-4.36,4.46-6.92,2.62-1.69,5.62-2.66,5.12-6,5.29-8.35c.16-2.2,4.18-5.64,4.79-5.92-5.08.51-6.48,3.31-7.86,4.55s-4,1.11-8.06,2S86.85,78.68,85.1,81s-2.37,1.65-6.56,3.31-2,4-5.26,6.43a166.35,166.35,0,0,1,6.17-21.72,34,34,0,0,0,3.76-.8c2.42-.1,5.2-.52,6.8-1.78,3.28-2.57,3.85-5.78,8.41-6.72s9-1,11.6-4.57,2.21-4.5,6.4-6.16,6.68-9.6,6.68-9.6S117.82,42.55,114.46,42.78Z"/><path class="cls-5" d="M109.53,65.51h.08S109.57,65.48,109.53,65.51Z"/><path class="cls-3" d="M82.42,123.53c4.6.8,27.76,4.39,30.2-4.23,2.63-9.29-18.82-3.12-28.06-2,1-2.77,2-5.6,3.16-8.44,4.19.52,22.82,2.34,24.48-6.27s-17.14-1.93-21.86-.15c1.65-3.9,3.42-7.77,5.3-11.53,4.46.23,22.92.78,23.94-5.42,1.5-9.2-15-3.78-20.17-1.67,1.59-2.8,3.25-5.48,5-8a2.17,2.17,0,0,0,.18,1.79s11,2.94,12.72-.78.16-8-5.22-6.58A12.65,12.65,0,0,0,105,74.64a.77.77,0,0,0-.33-.57.8.8,0,0,0-.61-.13,6.85,6.85,0,0,0,.43-.89S106,58.15,99,60.72s-.18,15.13,2.09,15.22a2.57,2.57,0,0,0,1.61-.5c-1.6,2.37-3.14,4.88-4.62,7.48C97.45,79,95,68.31,88.3,72.13,80.63,76.49,89.81,89,94,90.69c-1.74,3.51-3.39,7.11-4.93,10.73-.64-4.36-3-16.3-9-13.77-7.14,3-1.25,17,6.18,20.71-1.06,2.68-2,5.34-3,8-1.89-3.78-9.09-16.84-17.68-15.3-9.88,1.76-3.17,17.54,15.27,22.25-1,3.16-2,6.2-2.88,9.06-.06.17-.11.35-.17.53-3.17-3.31-17.28-17.39-19.85-7.92s13.93,15.83,17.22,17q-1.08,3.92-2,7.37c-2.78-2.94-13.71-13.94-16-7.35s10.75,13.34,14.15,15c-1.32,5.55-2,9-2,9a.8.8,0,0,0,.63.94h0a.79.79,0,0,0,.92-.63c0-.07.71-3.56,2.06-9.23,2.8,1,17.48,3.55,18.37-3.47.87-6.82-12.93-4.59-16.55-3.89.59-2.29,1.25-4.77,2-7.38,4.35.59,21.42,2.46,22.33-4.63s-15.94-4.93-19.73-4.33c.06-.19.11-.38.17-.56C80.36,129.87,81.34,126.76,82.42,123.53Z"/><path class="cls-6" d="M5.81,111.42c1.92-.91,3.34-2.68,5.59-.91s2.94,2.2,4,2.15,4.68-.56,7.75,1.06a5.62,5.62,0,0,0,2.92.54,4.42,4.42,0,0,0-3-1.57c-2.43,0-3-2.87-3.74-5.21s-1.28-3.36-2.94-3.6-3-2.71-3.23-5.23a4.35,4.35,0,0,0-2-3.43,20.81,20.81,0,0,1,6,1.91c2.64,1.44.71,3.23,3.51,6s4.07,1.94,4.67,4,.77,3.37,2.64,3.71a6.6,6.6,0,0,1,3.18,1.8c-1.13-1.88-1.36-4.82-2-6.61-.76-2-3-1.47-3.66-4.54s-1.12-2-1.57-4.12,1.49-2.49.46-6.12.47-4.72.47-4.72c1.76,3.69,3.79,1.69,4.8,4.8s.44,3,2.24,4,1.59,3.24,2,5.55,2,2.55,2.95,5-1.72,1.88-1.12,3.93,1.85,2.09.67,3.58a7.21,7.21,0,0,1-1.58,1.71q2.43,1.6,4.7,3.45a1.88,1.88,0,0,1,.1-1.31c.75-1.69-.27-2.53.21-3.58a3.69,3.69,0,0,0,0-3.15c-.46-1.22-1.49-3.45-.86-4.57s1.59-1.31.6-3.9-.06-1.55-.09-3.46-.36-2.31.11-3.36c.44.7.76,3.38,2.12,3.73s1.87,2.61,3,2.72a3.16,3.16,0,0,1,2,3.94c-.69,1.84-.4,2.6.24,4.28s.62,1.16-.62,4.78,1.24,3.72.24,5.68c-.92,1.81-2.35,1.11-2.69,2.1a83.11,83.11,0,0,1,6.74,7.46c.12-1.12-.53-2.12-1.2-3.48-.79-1.62.46-2.45,1-3.87s.89-2.26.15-3.73.27-2,1.15-3.41,1.16-2.89.9-5.41,2.6-3.27,2.6-3.27,4.64,5.75,3.2,8.39,1.49,3.45.59,5.2S56,121.61,56,123s.52,5.05-.79,5.72a9.56,9.56,0,0,0-3.1,3.32c1.87,2.45,3.58,5,5.15,7.42-1.29-2.21-1.16-3.17.13-4.58,1.48-1.61,2.53-4.81,2.16-6.24s1.46-.74,2-3,1.42-4,2.8-4.57c-.1.21.65,4.47,1.92,5s1.56,5,.09,5.73-2,2.15-1.94,4.06-1.79,1.73-2.79,3.69c-.92,1.8-.64,2.1-2.45,3a140.61,140.61,0,0,1,10.31,21.2,1.5,1.5,0,0,1-.59,1.79l0,0a1.51,1.51,0,0,1-2.24-.78,119.78,119.78,0,0,0-12.31-25.1,3.89,3.89,0,0,1-2.33.23c-1.72-.39-4.24,1.27-5.24,1.83s-3.09-.74-4-1.43-2.86.75-4.41.81S34,138.58,33,137.38,27.76,135,27.76,135s2-.24,4.06-.33,1.72-1,2.9-1.1a6.16,6.16,0,0,1,3.06.23,6.26,6.26,0,0,0,3.16,0c1.33-.16,1.32.71,3.31,1.35s4.55,0,4.68-.56,2.4,1.7,3.65,3.15a4.88,4.88,0,0,0,1.12.95,119.22,119.22,0,0,0-7.88-10.68c-1.1.57-2.22,1.62-2.73,1.82-.76.29-2.51-.62-3.62-1.24s-3.13.49-5,1-3-1.47-4.6-2.44-2-.12-3.92.28-4.67-1.72-5.5-3-4.05-1.82-4.47-1.79c3-1.29,4.6-.18,5.74.08s2.56-.63,5.06-1.41,5.37,1.27,7.06,2,1.82.18,4.64-.2,2.34,1.56,4.89,1.92a103.56,103.56,0,0,0-10.12-10.07,20,20,0,0,1-2.31.72,8,8,0,0,1-4.31,1.12c-2.6-.4-3.91-2-6.71-1.1s-5.28,2.19-7.81,1.06-2.61-1.8-5.44-1.42S0,112.24,0,112.24,3.88,112.33,5.81,111.42Z"/><path class="cls-6" d="M15.55,122.43l-.05,0S15.52,122.43,15.55,122.43Z"/><path class="cls-7" d="M63.85,133.49c-3.37.19-20.32.84-21.35-5.56-1.12-6.89,13.78-.66,20.33.94-.48-2.07-1-4.19-1.57-6.33-3,0-16.59-.22-17.07-6.54s12.48,0,15.73,1.71c-.87-2.94-1.81-5.87-2.85-8.73-3.23-.21-16.54-1.35-16.75-5.89-.32-6.74,11.11-1.46,14.63.48-.91-2.14-1.88-4.21-2.9-6.17a1.59,1.59,0,0,1-.28,1.27s-8.13,1.2-9.08-1.62.55-5.75,4.3-4.29a9.07,9.07,0,0,1,4.73,3.72.63.63,0,0,1,.29-.39.64.64,0,0,1,.45,0,3.62,3.62,0,0,1-.23-.67s.1-10.84,4.92-8.41S56,97.86,54.38,97.73a1.83,1.83,0,0,1-1.11-.49C54.22,99.08,55.12,101,56,103c.81-2.8,3.44-10.25,7.95-6.94,5.15,3.78-2.49,12-5.63,12.87,1,2.67,1.84,5.39,2.65,8.12.82-3.08,3.49-11.47,7.62-9.14,4.89,2.74-.52,12.33-6.16,14.36.53,2,1,4,1.48,6,1.67-2.55,7.94-11.34,14-9.52,7,2.1.82,12.87-12.83,14.72.49,2.36.93,4.63,1.32,6.75,0,.13,0,.27.07.4,2.55-2.12,13.88-11.06,14.93-4S70,146.77,67.54,147.34c.31,1.93.57,3.76.8,5.46,2.25-1.88,11-8.88,12.14-3.94s-8.84,8.68-11.42,9.56c.49,4.11.69,6.61.69,6.66a.58.58,0,0,1-.53.63h0a.58.58,0,0,1-.6-.53c0-.06-.21-2.62-.71-6.81-2.1.47-12.86,1.09-12.92-4,0-5,9.68-2.21,12.22-1.41-.23-1.7-.5-3.53-.8-5.47-3.17.06-15.6,0-15.66-5.19s11.87-2.21,14.54-1.47c0-.14,0-.28-.07-.42C64.8,138.22,64.35,135.9,63.85,133.49Z"/></g><path id="Shadow" class="cls-8" d="M439.55,317.66a5.9,5.9,0,0,1-1.09-11.39c11.33-4,17.61-8.36,17.61-13,0-17.78-93.12-32.2-208-32.2s-208,14.42-208,32.2c0,10,29.75,19,76.35,24.93a5.89,5.89,0,0,1,2.75,10.58c-2.62,2-4.12,3.87-4.12,5.45,0,7.52,21.48,13.61,48,13.61,23.09,0,59.77-12.68,68.79-20.9a5.87,5.87,0,0,1,4-1.53q6.09.06,12.27.06c27.39,0,53.55-.82,77.5-2.31a6,6,0,0,1,6.25,6.31.19.19,0,0,0,0,.08c0,8.1,30.46,14.66,68,14.66s68-6.56,68-14.66C467.86,324.66,456.7,320.33,439.55,317.66Z"/><g id="Person"><path class="cls-3" d="M138.93,290.38S188.51,317.9,228.72,320,387.44,310.34,428,290.38c5.74-2.11,5.44-76.49-11.19-93.11,1.81,1.51,3.63-2.42,0-9.68,1.51,0,9.37-31.14,0-56.23s-33.56-55-74.07-42.93S268.93,84.8,242,165.82c1.21,0-88.28.91-106.42,32.35s-27.21,81.94-27.21,81.94S115,291.29,138.93,290.38Z"/><path class="cls-9" d="M350.56,198.17s4.23-16.63,22.67-15.72"/><path class="cls-9" d="M347.54,177s8.61-3.78,16.17,5.29"/><path class="cls-9" d="M378.68,158.57s-3,.9-5.45,10.28"/><path class="cls-9" d="M122.75,256.67s14.51,3,17.84,14.21"/><path class="cls-9" d="M149.36,256.07c4.69,1.95-12.26-5.47-16.64,4.69"/><path class="cls-4" d="M334.54,127.12s19.65,1.82,28.72,5.14,13.6,5.14,19,0,19.35-44.44,20-53.51-40.21-18.14-40.21-18.14-26.61-10.88-41.12,13.61-10.88,43.23-10.88,43.23Z"/><path class="cls-4" d="M397.72,78.75s12.7-10.88,19-9.67C416.77,73,408.91,83.29,397.72,78.75Z"/><path class="cls-4" d="M380.49,128.94s10.28.23,10.28,11.19C390.77,145.87,377.16,132.57,380.49,128.94Z"/><path class="cls-10" d="M397.87,81.32s-8.16,33.86-16,41.12"/><path class="cls-1" d="M286.46,97.8s-29.17,2.57-38.54,11.34-33.86,28.11-33.86,28.11l-.75,15.38"/><path class="cls-2" d="M219.65,165.82H136.51s-6,39.61,14.21,39.91S219,209.36,219,209.36,227.81,177.61,219.65,165.82Z"/><path class="cls-2" d="M93.88,225.69,110,255.43a6.65,6.65,0,0,0,11.61.16l34.87-60.44s5.75-26.67-20.86-29.33C132.58,165.52,93.88,225.69,93.88,225.69Z"/><line class="cls-11" x1="192.59" y1="184.72" x2="201.6" y2="200.69"/><path class="cls-11" d="M153.89,196.21s-6.65-13.91-11.49-19.05"/><path class="cls-11" d="M148.15,177.16s5.42,7.21,5,15.55"/><path class="cls-12" d="M68.91,213.59s-4.52-9.28-7.57-3.26a14.34,14.34,0,0,0-.37,2.24c-1.24-.22-1.77-.42-3.13,1.68a3.15,3.15,0,0,0,.7,3.43c-2.81,3,2.9,5.17,2.9,5.17,1.29.06,1.78-2.8,1.78-5a12.85,12.85,0,0,0,.85,1.12Z"/><path class="cls-13" d="M103.91,244.21l-9.83-18.1L90,230.57a2.66,2.66,0,0,1-4.21-.4L74.23,211.82s-.5-6.44-2.67-7.64c-3.09-1.71-10.3,3.89-5.35,10.58-.4.37-6.85,4.75-4.13,12.43A25.18,25.18,0,0,0,67,235.53a18.09,18.09,0,0,1,4,7c2,7,6.71,17.73,14.9,18.89,7,1,8.07-5.33,9.5-6.94.11-.13.25-.24.37-.37Z"/><path class="cls-12" d="M67.41,218.14S62,235.25,77.58,236.74C78.82,237.48,65.18,233,67.41,218.14Z"/><polygon class="cls-12" points="94.08 226.11 103.91 244.21 99.96 248.97 91.35 229.07 94.08 226.11"/><path class="cls-2" d="M224.79,175.2s-36.58,39.3-42.63,49,20,43.84,36.88,32.35,34.47-34.76,48.08-39.6C269.53,212.08,245.35,175.2,224.79,175.2Z"/><path class="cls-2" d="M161.9,305.5s11.79-70.74,20.26-83.74S224.79,223,219,256.52c-1.81.91-6.59,35.74-8.4,55.4a12.6,12.6,0,0,1-12.45,11.45C184.06,323.48,161.9,321.15,161.9,305.5Z"/><path class="cls-11" d="M224.79,175.2s-36.58,39.3-42.63,49"/><path class="cls-11" d="M206.5,254.26s2.58-3.48,11.65,1.66c0,0-1.07-8.32-10.14-13.45"/><path class="cls-1" d="M199.3,322.37c4.44,0,7.25-1.37,9.47-4.9-31.3-10.36-46.87-12-46.87-12C161.9,321.15,185.17,322.48,199.3,322.37Z"/><path class="cls-13" d="M181.7,309.38c-2.77-1.19-18.82-3.88-18.82-3.88L159.8,317a7.59,7.59,0,0,1-4.53,4.88l-17.59,6.8s-9.67,0-9.67,6.15c.26,3.57,3.24,4,5.7,3.72.84,2.32,3.41,2.49,5.47,2.19.38,4.53,5.49,3.58,7.58,3,1.35,2.46,6.18,1.31,9.22.28a5.9,5.9,0,0,0,2.54-1c2-.12,5-2.36,7-2.93,8.23-2.36,7.78-1.89,11.56-4.45,2.4-1.63,2.26-5.9,2-8.31-.17-1.31-.85-2.65-.55-3.93C179.51,319.37,181.48,310.71,181.7,309.38Z"/><path class="cls-12" d="M146.76,343.74l-1.64.36s-1.11-3.93,1.64-5.31,3.5,0,3.5,0S145.38,338.44,146.76,343.74Z"/><path class="cls-12" d="M139.18,340.75a4.91,4.91,0,0,1,4.29-4.79c.25.08-5-.12-5.25,4.89Z"/><path class="cls-12" d="M133.71,338.56a6.13,6.13,0,0,1,5.42-5.77c-1.45-.37-6.29.33-7.07,5.82C132.3,338.63,133.71,338.56,133.71,338.56Z"/><path class="cls-12" d="M175.94,315.09s1.7,7.81-2.46,10.33C175,325.49,179.91,323,175.94,315.09Z"/><path class="cls-12" d="M162.28,307.75l18.71,5c.36-1.65.64-2.94.71-3.39-2.77-1.19-18.82-3.88-18.82-3.88Z"/><path class="cls-1" d="M285.66,98s-19.76,2.55-29.73,16.75-61.81,51.09-61.81,51.09,17.91-.44,23.55,9.82c7.15,13,29.92,44.72,52.28,45.93s48.65-55.9,48.65-55.9,16.31-33.24,12.69-49.56S312.55,90.73,285.66,98Z"/><path class="cls-1" d="M267.23,137s47.44,35.36,58.32,48.95c.9,1.52-15.11,22.67-27.8,19.65s-46.54-44.73-46.54-44.73S253,147.24,267.23,137Z"/><path class="cls-1" d="M291.76,178.07l36.58-69.94s13.6,17,14.21,37.89-25.4,51.12-25.4,51.12Z"/><path class="cls-13" d="M294.31,89.21l-9.68,18.27a7,7,0,0,0,7.25,9.78,23.35,23.35,0,0,0,12.57-5.71c7.11-6.5,14.85-20.91,14.85-20.91Z"/><path class="cls-12" d="M291.46,95.35a47.87,47.87,0,0,0,14,2.82,37.25,37.25,0,0,0,9.47-.62c2.19-3.13,4-6.26,4-6.26l-25-1.43Z"/><line class="cls-14" x1="300.28" y1="161.77" x2="321.08" y2="121.83"/><path class="cls-2" d="M267.23,137c-14.2,10.28-16,23.87-16,23.87s.36.45,1,1.23c4.84-3.64,10.67-10.75,15.73-24.56Z"/><path class="cls-14" d="M272.1,103.39c-6.62,2.14-10,4.74-16.17,11.34-2.51,2.68-6.05,7-11,11.43"/><path class="cls-14" d="M208,163.86s17.84-3.33,26,17.23,25.7,22.68,25.7,22.68"/><path class="cls-14" d="M259.71,191.67s-7.62,5.64-21.95-3.23"/><path class="cls-15" d="M246.84,74.7l0-4.83S207.31,74,201.43,82.16C201.37,83.83,246.84,74.7,246.84,74.7Z"/><path class="cls-15" d="M183.08,60.79V52.27s22.64,26.87,22,35.2c0-.26-2.09-.13-2.09-.13Z"/><path class="cls-3" d="M251.11,75.15l-2.45,64.11a3.28,3.28,0,0,1-2.9,3.13l-44.16,5.13V82.1l45.52-10.27A3.27,3.27,0,0,1,251.11,75.15Z"/><path class="cls-3" d="M182,126.05l19.7,21.48V82.23L181,54.11a1,1,0,0,0-1.87.65l2.58,70.62A1.11,1.11,0,0,0,182,126.05Z"/><line class="cls-9" x1="201.66" y1="145.72" x2="201.66" y2="81.62"/><ellipse class="cls-3" cx="283.54" cy="49.79" rx="19.36" ry="16.46" transform="translate(124.27 289.6) rotate(-66.37)"/><path class="cls-3" d="M298.61,56.39c-3.9,8.92-11.84,14-17.74,11.47S273.34,56,277.24,47,289.09,33,295,35.57,302.52,47.48,298.61,56.39Z"/><path class="cls-13" d="M275.51,20.94l1.83,50.72s4.18,20.65,30.58,22.22,36.34-27.71,36.34-27.71,8.1-32.94-3.4-45.23S275.51,20.94,275.51,20.94Z"/><path class="cls-16" d="M324.28,5.15s30.61,3.65,45.51,25.42c-.24.17-13.42,29.63-13.42,29.63L336,61.51l-4.51-.76,5.22-16.58s-12.22-6.81-11.07-17.36S324.28,5.15,324.28,5.15Z"/><path class="cls-16" d="M346.53,25.71s8.38-21.44,15.53-19.58S346.53,25.71,346.53,25.71Z"/><path class="cls-16" d="M349,24.51S363.37,9,368.66,16,359.89,18,349,24.51Z"/><ellipse class="cls-6" cx="299.69" cy="53.76" rx="1.56" ry="2.23"/><path class="cls-6" d="M283.2,53.87c0,1.24-.69,2.23-1.56,2.23s-1.56-1-1.56-2.23.7-2.23,1.56-2.23S283.2,52.64,283.2,53.87Z"/><path class="cls-17" d="M289.1,73.49s7.58,5.23,13.33-2.09"/><path class="cls-18" d="M295.63,47.35a5.72,5.72,0,0,1,8.37,0"/><path class="cls-18" d="M277.6,46.3a5.72,5.72,0,0,1,8.36,0"/><path class="cls-12" d="M319.25,58.43c.62,2.37-3,5.37-8.13,6.68s-9.73.46-10.35-1.91,3-5.38,8.13-6.69S318.64,56.05,319.25,58.43Z"/><path class="cls-12" d="M277.13,57l-.33-.08.33,9.06c3.18.24,5.81-.83,6.31-2.76C284.05,60.82,281.23,58,277.13,57Z"/><path class="cls-17" d="M287.92,52.44S285.31,60,284.39,63c-.48,1.6.92,3.79,5.62,3.79"/><path class="cls-12" d="M293.41,77.8a9.46,9.46,0,0,0,7.32-.78C300.47,77.54,298.12,84.08,293.41,77.8Z"/><ellipse class="cls-3" cx="348.63" cy="65.74" rx="19.36" ry="16.46" transform="translate(148.67 358.79) rotate(-66.37)"/><path class="cls-7" d="M363.71,72.34c-3.9,8.91-11.85,14-17.75,11.47S338.44,71.9,342.34,63s11.84-14.05,17.75-11.47S367.61,63.42,363.71,72.34Z"/><path class="cls-7" d="M355.88,41.86s6.42-7.88,3-15C354.06,16.89,320.27,6.7,320.27,6.7l-4-5.62S348.9,8,366,22.75c5.39,4.64,7.09,13.44,4,20.49a40.52,40.52,0,0,1-6.48,10.38Z"/><polygon class="cls-4" points="354.55 44.44 357.63 38.43 367.04 48.86 364.5 53.33 354.55 44.44"/><path class="cls-3" d="M352.39,51.86l6-7.22L367.78,58l-2.06,6.8S362.07,52.36,352.39,51.86Z"/><polygon class="cls-7" points="353.03 52.31 346.88 47.93 353.55 42.38 358.35 44.64 353.03 52.31"/><path class="cls-16" d="M331.57,18.86s-1.75-13-9.8-16.3S295.47.11,295.47.11s-23.59,1.82-25,14.72S269.54,37.3,280,42.61c1.26.66,2.9-9.48,2.9-9.48s7.21,11.35,20.46,10.55c-.41-.29-1.06-7.41-1.06-7.41s5.36,8.79,10.83,9.9c2.28-.08,1.06-9.32,1.06-9.32s2.94,10.69,8.89,12.86c.05,0,3.91-6.72,3.91-6.72S331.82,25.68,331.57,18.86Z"/><path class="cls-14" d="M286.54,198.51c-15.05-12.69-35.33-37.68-35.33-37.68s1.82-13.59,16-23.87c0,0,47.44,35.36,58.32,48.95"/><path class="cls-13" d="M180.3,96.2s6.73-2.42,7.08,2.22c.2,2.49-1.9,3.44-3.83,3.78s-3.9.64-4.82-1C177.56,99,176.91,96.51,180.3,96.2Z"/><path class="cls-13" d="M182.15,110a3.38,3.38,0,0,1-3.12-3.7c.13-1.24.79-4.1,2.41-3.26,3.77,2,6.73,1,6.73,4S184.68,110.19,182.15,110Z"/><path class="cls-13" d="M181,109.65s-2.81,5.9.83,6.31c1.67.19,6,2,6.23-.75s-2.62-5-2.62-5Z"/><path class="cls-13" d="M249,129.46l.34-7.38s8.24,2.32,11.17,12.58C256.8,134.66,249,129.46,249,129.46Z"/><path class="cls-13" d="M244.51,126.24a13.92,13.92,0,0,0,4.69,2.12A26.76,26.76,0,0,1,260,134.07c1,.85,1.73,4.51,3.73,6.85,0,1.79-.79,7.45-8.58,14.47-2,.44-9.22-3.45-13.3-5.31a16.64,16.64,0,0,1-4.26-2.78c-2.43-2.21-12.07-6.84-12.07-10.34,0-2,1-1.27,11.07,2.23a.45.45,0,0,0,.49-.73c-1.05-1.18-1.76-1.57-4.14-3-4.06-2.4-8.36-4.4-7.75-5.93,1.16-2.91,3.78-1.39,16.13,3.32a.26.26,0,0,0,.27-.43c-1.34-1.24-3.64-3.45-6.12-5.49-3-2.44-4.87-2.59-3.8-4.59C233.47,119,240.75,123.57,244.51,126.24Z"/><path class="cls-12" d="M249,128.27l.23-3.81L255,130a.41.41,0,0,1-.45.67Z"/><path class="cls-4" d="M334.85,92.45s14.52-15.72,33.56-13C369,80.05,369.62,103.63,334.85,92.45Z"/><path class="cls-10" d="M334,93.35s5.11-6.16,12.24-8"/><path class="cls-10" d="M360.4,80.81a14.44,14.44,0,0,1,11,1.46"/><path class="cls-10" d="M333.34,85.49s5-.45,4.94,3.86"/><path class="cls-3" d="M255.93,251.08s10.55-56.53,48.51-63.49,58.21,33.26,61.24,52.91C365.68,242.92,313.07,182.75,255.93,251.08Z"/><path class="cls-3" d="M186.39,211.48s-5.74-23.59-25.7-21.77-18.14,39.91-18.14,39.91Z"/><path class="cls-9" d="M252.6,229.62s20.26,0,29,17.23"/></g><g id="Books"><ellipse class="cls-2" cx="428.03" cy="336.49" rx="26.38" ry="4.84"/><rect class="cls-2" x="401.2" y="327.57" width="53.21" height="8.92"/><path class="cls-1" d="M454.41,328.11c0,2.7-11.91,4.88-26.6,4.88s-26.61-2.18-26.61-4.88,11.91-4.88,26.61-4.88S454.41,325.41,454.41,328.11Z"/><polygon class="cls-1" points="468.17 232.94 387.44 232.94 401.5 327.57 454.41 327.57 468.17 232.94"/><ellipse class="cls-2" cx="427.81" cy="233.09" rx="40.36" ry="7.41"/><path class="cls-4" d="M431.24,229.5s-5.7-14.4,2.46-15.61,6.35,7.87,6.35,7.87,3.93-9.68,8.16-5.45-5.14,12.1-5.14,12.1,4.24-3.33,6.35,0,4.23,13-10,7.86S422.13,239.06,431.24,229.5Z"/><path class="cls-3" d="M447,240.5s-5.14-13.91,0-18.74,7.41,5.76,7.41,5.76-.76-7.58,5.29-5.76,0,11.33,0,11.33,4.08-2.28,5.67,2.72C465.52,235.52,447,240.5,447,240.5Z"/><path class="cls-15" d="M418.57,240.3s-5.73-4.34,3.34-7.36c3.63,0-7.85-1.18-2.56-7.09s9.73,7.24,9.73,7.24-1.73-10.73,5.23-8.92,0,11.49,0,11.49,9.37-7.25,8.46,4.84C442.47,239.9,428.22,241,418.57,240.3Z"/><path class="cls-2" d="M365.68,265.9l5.74,3L356,314.87l-38.7,5.45s20.26-10.59,31.45-24.49A117.28,117.28,0,0,0,365.68,265.9Z"/><polygon class="cls-4" points="358.42 262.27 370.21 264.99 371.42 270.43 358.42 262.27"/><path class="cls-4" d="M358.42,262.27l7.26,3.63s-13.31,56.53-48.38,54.42c-.3,0-1.51-7-1.51-7s21.58-5,31.75-24.49C358.12,268.62,358.42,262.27,358.42,262.27Z"/><polygon class="cls-4" points="367.49 262.27 377.85 264.9 363.56 330.6 350.86 326.36 367.49 262.27"/><polyline class="cls-1" points="363.56 330.6 377.77 326.36 385.33 268.31 377.77 264.99"/><polygon class="cls-4" points="391.98 252.59 379.28 252.59 377.16 330.29 393.49 330.29 391.98 252.59"/></g></g></g></svg>